<?xml version="1.0" encoding="UTF-8"?>
<svg id="Layer_2" data-name="Layer 2" xmlns="http://www.w3.org/2000/svg" viewBox="0 0 207.32 172.3">
  <defs>
    <style>
      .cls-1 {
        fill: #231f20;
      }

      .cls-2 {
        fill: none;
        stroke-linecap: round;
        stroke-linejoin: round;
      }

      .cls-2, .cls-3, .cls-4, .cls-5, .cls-6 {
        stroke: #000;
      }

      .cls-2, .cls-3, .cls-6 {
        stroke-width: 2px;
      }

      .cls-3, .cls-4 {
        fill: #f5eae2;
      }

      .cls-3, .cls-4, .cls-5, .cls-6 {
        stroke-miterlimit: 10;
      }

      .cls-4 {
        stroke-width: .5px;
      }

      .cls-5, .cls-6 {
        fill: #ffd9c6;
      }
    </style>
  </defs>
  <rect class="cls-3" x="79.81" y="112.38" width="48.71" height="37.54"/>
  <path class="cls-6" d="M48.21,90.14c-5.81-4.67-11.08-10.02-15.67-15.89-3.29-4.22-6.82-9.08-12.11-9.88-5.45-.82-10.49,3.07-15.97,3.67-.6.07-1.25.08-1.76-.24-.47-.29-.75-.82-.95-1.34-1.83-4.62.04-9.8,1.92-14.4,2.34-5.74,4.7-11.47,7.27-17.1,4.65-10.16,15.52-16.5,26.4-19.06,11.33-2.67,23.23-.8,34.57,1.82-12.52,18.83-12.68,43.03-19.72,64.51-1.01,3.07-1.71,5.61-3.98,7.91Z"/>
  <path class="cls-6" d="M154.47,86.93c6.38-4.47,12.17-9.59,17.21-15.22,3.62-4.04,7.49-8.7,13.3-9.46,5.99-.78,11.52,2.94,17.54,3.52.66.06,1.37.08,1.93-.23.52-.28.82-.79,1.04-1.28,2.01-4.42-.05-9.38-2.11-13.79-2.57-5.49-5.16-10.98-7.99-16.37-5.11-9.73-17.05-15.8-29-18.25-12.45-2.56-25.51-.77-37.97,1.74,13.75,18.03,13.92,41.2,21.66,61.77,1.11,2.94,1.88,5.37,4.37,7.57Z"/>
  <path class="cls-6" d="M127.73,112.13c1.33,6.33.67,13.07-1.87,19.02-1.31,3.07-3.11,5.97-3.81,9.23s.04,7.15,2.84,8.96c1.63,1.05,3.65,1.23,5.59,1.27,2.07.05,4.22-.04,6.05-1.02,3.16-1.69,4.46-5.51,5.22-9.01,1.62-7.44,2.11-15.14,1.43-22.72-.36-4.01-1.27-8.45-5.62-10.03-1.68-.61-3.55-.47-5.2.23-2.03.86-3.85,2.01-4.63,4.07Z"/>
  <path class="cls-5" d="M96.39,117.29c1.77,1.03,3.81,1.53,5.84,1.85,3.77.59,7.76.57,11.24-.99s6.33-4.93,6.43-8.74c-8.52-.27-17.04-.54-25.56-.82-.83-.03-1.69-.05-2.44.3-3.51,1.63,2.79,7.4,4.49,8.4Z"/>
  <path class="cls-6" d="M46.99,41.37c1.33-3.24,2.95-6.36,4.86-9.29,3.55-5.46,6.94-11.07,11-16.17,2.2-2.76,4.62-5.39,7.53-7.4,3.44-2.37,7.45-3.79,11.48-4.87,8.67-2.33,17.68-2.99,26.64-2.48,7.06.4,14.9-.14,20.86,3.56,13.49,8.37,25.22,20.9,30.01,36.04,3.52,11.14,5.8,22.67,6.79,34.31.24,2.78.3,5.45.14,8.05-.34,5.43-1.67,10.54-4.52,15.64-.52.93-1.22,1.76-2.02,2.46-3.27,2.88-6.81,5.6-10.85,7.25-3.61,1.48-7.52,2.07-11.4,2.53-11.55,1.4-22.16,1.34-33.81,1.37-9.47.02-18.92-.82-28.25-2.42-8.8-1.51-18.48-2.7-25.96-7.97-4.6-3.24-7.46-8.43-8.05-14.03-1.26-11.94-.15-24.11,3.21-35.63.56-1.92.54-3.59.91-5.56.37-2,.65-3.52,1.43-5.4Z"/>
  <circle class="cls-1" cx="75.53" cy="76.34" r="10.59"/>
  <circle class="cls-1" cx="132.64" cy="76.34" r="10.59"/>
  <path class="cls-2" d="M94.18,99.44c1.47,1.3,2.99,2.63,4.84,3.26,1.23.43,2.55.52,3.85.57,3.75.14,7.92-.31,10.45-3.08"/>
  <path class="cls-6" d="M78.53,150.82c-.37.08-.76.14-1.14.16-4.46.3-7.98-2.99-9.15-7.3-2.83-10.48-.3-22.26,6.59-30.64l.02-.03c.92-.68,1.83-1.36,1.83-1.36.97-.72,2.46-.31,3.23.63s.97,2.21.94,3.42,0,2.17-.02,3.38c-.11,5.29.81,10.59,2.68,15.54.91,2.41,2.06,4.82,2.11,7.4.07,4.08-3.14,7.92-7.09,8.79Z"/>
  <ellipse class="cls-4" cx="67.3" cy="115.92" rx="8.23" ry="4.69"/>
  <ellipse class="cls-4" cx="90.56" cy="120.91" rx="4.25" ry="8.23" transform="translate(-60.44 125.38) rotate(-54.86)"/>
  <ellipse class="cls-4" cx="79.35" cy="115.92" rx="6.26" ry="5.77"/>
  <path class="cls-6" d="M88.62,150.62v6.27c-.22,0-.44-.02-.66-.02-7.53,0-13.63,3.23-13.63,7.21s6.1,7.21,13.63,7.21c.22,0,.44-.01.66-.02v.02h15.54v-20.67h-15.54Z"/>
  <path class="cls-6" d="M119,150.62v6.27c.21,0,.42-.02.63-.02,7.19,0,13.01,3.23,13.01,7.21s-5.83,7.21-13.01,7.21c-.21,0-.42-.01-.63-.02v.02h-14.83v-20.67h14.83Z"/>
</svg>