<?xml version="1.0" encoding="UTF-8"?>
<svg id="Layer_1" data-name="Layer 1" xmlns="http://www.w3.org/2000/svg" viewBox="0 0 160.6 202.89">
  <defs>
    <style>
      .cls-1, .cls-2, .cls-3, .cls-4, .cls-5, .cls-6, .cls-7 {
        stroke: #231f20;
      }

      .cls-1, .cls-2, .cls-3, .cls-6, .cls-7 {
        stroke-miterlimit: 10;
      }

      .cls-2, .cls-4 {
        fill: none;
      }

      .cls-3, .cls-8 {
        fill: #fccfb1;
      }

      .cls-9, .cls-7 {
        fill: #a9a9ab;
      }

      .cls-4, .cls-5 {
        stroke-linecap: round;
        stroke-linejoin: round;
      }

      .cls-5 {
        fill: #a193ae;
      }

      .cls-6 {
        fill: #3e5da9;
        stroke-width: 1.5px;
      }

      .cls-10 {
        fill: #c1cad8;
      }
    </style>
  </defs>
  <rect x="51.42" y="190.25" width="25.62" height="12.65"/>
  <rect x="84.98" y="190.25" width="25.62" height="12.65"/>
  <circle class="cls-3" cx="22.12" cy="162.93" r="7.78"/>
  <polygon class="cls-5" points="61.13 145.66 27.76 173.5 16.37 154.05 56.2 139.27 61.13 145.66"/>
  <polygon class="cls-5" points="119.18 193.8 41.42 192.84 53.82 132.07 107.46 132.07 119.18 193.8"/>
  <g>
    <circle class="cls-3" cx="115.02" cy="160.86" r="7.78"/>
    <polygon class="cls-5" points="128.08 162.23 101.96 162.23 106.77 131.89 116.85 129.52 128.08 162.23"/>
  </g>
  <g>
    <path class="cls-7" d="M27.42,45.26c-9.38,10.92-10.19,26.8-15.03,40.5-2.84,8.02-7.15,15.46-9.59,23.62-2.74,9.12-3.04,19.01-.86,28.29,1.51,6.44,5.11,13.37,11.42,14.63,3.24.65,6.56-.36,9.71-1.36,6.8-2.16,13.61-4.32,20.41-6.47,22.73,1.44,45.62.06,68.03-4.11,2.86-.53,6.34-.9,8.17,1.42,2.73,3.45-1.04,8.81.47,12.98.87,2.4,3.39,3.84,5.87,4.11s4.95-.4,7.36-1.06c6.69-1.85,13.57-3.8,19.02-8.18s9.16-11.89,7.14-18.71c-1.45-4.9-5.63-9.05-5.3-14.16.18-2.79,1.71-5.26,2.74-7.85s1.49-5.81-.23-7.97c-12.72-15.9-13.62-38.77-20.74-58.01-.9-2.44-2.59-3.69-5.12-3.83-20.03-1.12-40.06-2.24-60.11-2.77-7.9-.21-15.86-.32-23.64,1.08-7.79,1.4-15.46,4.4-21.4,9.76"/>
    <ellipse class="cls-3" cx="22.67" cy="101.64" rx="6.67" ry="7.93"/>
    <circle class="cls-3" cx="139.83" cy="101.64" r="7.17"/>
    <path class="cls-8" d="M109.8,127.37h-56.17c-15.67,0-28.49-12.82-28.49-28.49l2.24-40.37c0-3.73,5.16-16.35,8.88-16.35l87.14-.45c3.73,0,11.42,2.69,11.42,6.42l3.05,51.17c0,15.44-12.63,28.07-28.07,28.07Z"/>
    <path class="cls-7" d="M132.38,87.06c-.22-.89-.44-1.8-.42-2.72s.28-1.87.93-2.53c.52-.53,1.25-.83,1.98-.97,2.29-.43,4.78.74,5.93,2.76.79,1.41.94,3.09.96,4.7.03,2.36.08,4.06-.43,6.36-1.45,6.52-1.77,13.22-2.77,19.82-.99,6.6-2.73,13.27-6.63,18.69-4.65,6.48-12.01,10.6-19.67,12.81-7.66,2.21-16.12,3.54-24.08,4.01,3.96,5.72,5.53,13.04,4.26,19.88-.86,4.61-3.77,8.6-6.3,12.55-1.08,1.69-2.27,3.39-3.94,4.51-.56.38-1.15.71-1.71.33-5.85-4.02-9.92-10.54-10.96-17.56-1.04-7.02.11-15.34,4.54-20.88-8.32-.68-16.72-1.36-24.71-3.78s-15.66-6.71-20.66-13.4c-6.86-9.18-7.81-21.44-7.39-32.89.18-4.8.15-8.64,2.65-12.75.74-1.21,1.67-2.41,3.02-2.84s3.12.3,3.29,1.7c-.07,7.88.15,16.41,4.5,23.3,2.04,3.22,5.02,5.81,8.66,6.95,7.87,2.46,13.75-2.86,19.49-7.13,4.21-3.13,7.8-4.87,13.61-5.34,1.33-.11,3.62-.16,4.96-.19,6.5-.16,12.71.69,18.03,3.96,6.23,3.82,11.35,10.5,19.45,8.89,3.74-.74,6.9-3.14,9.05-6.29,4.52-6.61,4.52-14.61,4.47-22.29"/>
    <path class="cls-9" d="M8.45,107.64c-1.06-6.31-.89-6.52,2.88-12.07,3.77-5.55,4.58-15.05,7.49-20.95,2.28-4.62,3.41-9.57,5.13-14.35s3.24-12.96,7.55-16.44,13.4-1.62,19.41-1.63c-6.73-.32-12.12,4.65-15.02,9.71-3.91,6.84-5.27,14.47-6.64,21.96-1.37,7.49-2.87,15.11-7.03,21.85s-4.77,10.73-13.78,11.92"/>
    <path class="cls-4" d="M49.62,42.39c-5.57-.32-11.89,5.92-14.29,10.96-3.24,6.82-5.31,11.69-6.44,19.15s-1.56,15.55-5.01,22.26c-3.45,6.72-10.34,12.04-17.79,13.23"/>
    <path class="cls-9" d="M151.95,102c-11.87-5.32-20.68-16.94-22.58-29.81-.8-5.41-.46-10.94-1.14-16.37s-2.62-11.04-6.92-14.42c4.53.8,11.15-1.74,13.04,2.45s.81,13.58,1.82,18.07c2.37,10.55,5.24,21.59,11.79,30.2,2.47,3.25,5.16,5.97,3.99,9.89Z"/>
    <path class="cls-4" d="M121.45,41.71c4.3,3.38,6.24,9,6.92,14.42s.34,10.96,1.14,16.37c1.91,12.86,10.72,24.49,22.58,29.81"/>
    <circle class="cls-1" cx="111.32" cy="95.98" r="6.65"/>
    <circle class="cls-1" cx="51.42" cy="95.98" r="6.65"/>
    <path class="cls-2" d="M68.45,117.1c5.04,1.05,10.61-1.08,13.66-5.24,3.69,4.43,10.32,6.13,15.68,4.02"/>
    <path class="cls-7" d="M45.41,77.65c-.75-.12-1.53-.25-2.19-.64s-1.17-1.12-1.09-1.88c.15-1.39,1.94-1.84,3.34-1.87,6.4-.15,12.83,1.1,18.71,3.65,1.44.62,3.1,1.8,2.76,3.33-.34,1.55-2.4,1.91-3.98,1.7-2.89-.38-5.25-1.86-7.98-2.65-3.07-.9-6.42-1.13-9.57-1.64Z"/>
    <path class="cls-7" d="M99.6,76.67c-1.14.71-2.23,1.63-2.6,2.84s.27,2.74,1.61,3.05c.73.17,1.5-.04,2.22-.24,3.24-.93,6.49-1.85,9.73-2.78,2.63-.75,5.27-1.5,7.9-2.25,1.34-.38,2.98-1.14,2.83-2.42-.09-.73-.81-1.3-1.59-1.5s-1.61-.12-2.41-.03c-5.86.63-12.64.17-17.7,3.33Z"/>
  </g>
  <path class="cls-6" d="M16.37,23.92c6.27,3.96,2.16,14.37,6.63,20.22,3.11,4.06,9.09,4.4,14.27,4.37,33.53-.19,67.06-.38,100.59-.58-.08-14.69-1.53-28.87-13.09-38.25-6.19-5.03-14.4-6.94-22.38-7.97C71.14-2.31,42.34,6.44,16.37,23.92Z"/>
  <circle class="cls-10" cx="98.56" cy="25.24" r="5.05"/>
  <path class="cls-10" d="M33.63,31.79c-.74-1.98-2.09-3.47-3.56-4.49-1.24-.86-3.96-2.84-4.93-.72"/>
  <path class="cls-10" d="M125.97,22.52c-1.17,1-1.21,2.53-.56,3.76.74,1.42,3.86,5.4,5.57,3.18"/>
  <path class="cls-10" d="M132.2,40.45c.33,1.88-2.29,2.21-4.19,2.24-18.45.3-36.49-.78-54.99-.48-13.96.23-28,.63-41.97.88-2.04.04-3.33-2.17-2.31-3.93h0c.97-1.67,2.34-3.08,4.01-4.04,4.15-2.41,9.32-2.99,13.9-1.57,5.24,1.62,10.93,8.05,15.46,4.95,2.45-1.68,4.2-3.05,6.04-4.35.36-.26.74-.49,1.14-.7l5.45-2.94c1.5-.81,3.19-1.22,4.89-1.2.54,0,1,.03,1.24.06,5.52.75,9.04,8.07,14.64,9.12,3.34.62,4.37-1.55,7.7-4.12,2.21-1.7,3.69-2.49,7.3-4.17,1.06-.49,4.12-.15,5.21.28,3.59,1.43,2.48.74,6.26,2.37.98.42,4.15,1.75,5.11,2.21,1.05.52,1.71.92,2.35,1.76.51.67,2.61,2.77,2.76,3.63Z"/>
  <circle class="cls-10" cx="58.08" cy="26.32" r="5.05"/>
</svg>