<?xml version="1.0" encoding="UTF-8"?>
<svg id="hp_logo" data-name="hp logo" xmlns="http://www.w3.org/2000/svg" xmlns:xlink="http://www.w3.org/1999/xlink" viewBox="0 0 736 255">
  <defs>
    <style>
      .cls-1 {
        fill: url(#linear-gradient-8);
      }

      .cls-2 {
        fill: url(#linear-gradient-7);
      }

      .cls-3 {
        fill: url(#linear-gradient-5);
      }

      .cls-4 {
        fill: url(#linear-gradient-6);
      }

      .cls-5 {
        fill: url(#linear-gradient-9);
      }

      .cls-6 {
        fill: url(#linear-gradient-4);
      }

      .cls-7 {
        fill: url(#linear-gradient-3);
      }

      .cls-8 {
        fill: url(#linear-gradient-2);
      }

      .cls-9 {
        fill: url(#linear-gradient);
      }
    </style>
    <linearGradient id="linear-gradient" x1="0" y1="136.18" x2="195.12" y2="136.18" gradientUnits="userSpaceOnUse">
      <stop offset="0" stop-color="#95762c"/>
      <stop offset="1" stop-color="#fddc7d"/>
    </linearGradient>
    <linearGradient id="linear-gradient-2" x1="369.88" y1="127.5" x2="526.9" y2="127.5" xlink:href="#linear-gradient"/>
    <linearGradient id="linear-gradient-3" x1="665.33" y1="128.17" x2="736" y2="128.17" xlink:href="#linear-gradient"/>
    <linearGradient id="linear-gradient-4" x1="221.02" y1="148.45" x2="356" y2="148.45" xlink:href="#linear-gradient"/>
    <linearGradient id="linear-gradient-5" x1="180.96" y1="103.05" x2="247.97" y2="103.05" xlink:href="#linear-gradient"/>
    <linearGradient id="linear-gradient-6" x1="240.01" y1="93.42" x2="305.69" y2="93.42" xlink:href="#linear-gradient"/>
    <linearGradient id="linear-gradient-7" x1="565.61" y1="126.61" x2="641" y2="126.61" xlink:href="#linear-gradient"/>
    <linearGradient id="linear-gradient-8" x1="516.55" y1="116.32" x2="572.01" y2="116.32" xlink:href="#linear-gradient"/>
    <linearGradient id="linear-gradient-9" x1="610.87" y1="124.3" x2="677" y2="124.3" xlink:href="#linear-gradient"/>
  </defs>
  <g id="letters_logo" data-name="letters logo">
    <g>
      <path class="cls-9" d="M0,122c4.07-2.05,18.5-6.48,22.02-4.51,1.86,1.04.27,1.6-.66,2.37-1.91,1.58-12.82,6.35-12.32,8.58.67,2.97,19.96,16.62,21.95,14.56-.43-19.81.58-39.73.05-59.54-.22-8.05-.02-21.75-1-29s-7.8-6.98-9.04-9.97c-.59-1.43,2.02-2.49,2.49-2.49h44c5.5,0-6.03,9.76-4.54,11.46,1.51,25.45-1.85,52.88,0,78.08.14,1.91.52,3.63,1.08,5.43,2.67,1.84,22.3-11.55,24.52-14.92,3.63-5.51.43-14.54.44-20.56.04-18.28,2.21-39.65-.41-57.83-.97-6.73-7.74-8.24-4.01-12.56,5.65,3.54,42.22-1.91,43.42-.1s-8.22,11.05-8.94,15.54c-2.06,12.76.27,35.48.99,48.91.26,4.81-.27,9.73-.04,14.54,13.95-1.57,28.02-3.21,42-1,.77-4.8-.69-10.02-.8-14.5-.11-4.86,2.08-10.85-1.17-16.04-1.77-1.39-15.37,7.17-16.74,8.82-2.26,2.71-.83,7.12-1.28,10.26-.39,2.71-3.11,1.76-4.52.48-.82-.74-10.2-18.15-10.42-19.57-.36-2.26-.42-8.7,1.21-10.17,6.87-2.9,12.43-8.18,19.2-11.29,3.52-1.62,7.57-4.1,11.08-2.02,2.51,1.48,9.97,10.68,12.42,13.57,3.62,4.27,11.47,13.63,13.86,18.14,6,11.3-.13,49.49,2.23,64.77.8,5.19,3.05,4.91,7.42,3.55.91.03.65,1.78.4,2.4-.3.76-10.05,9.18-11.91,11.09-4.79,4.93-6.55,11.85-14.48,11.61-6.7-.2-7.99-3.93-7.5-10.08-7.27,2.08-18.17,14.45-25.48,5.98-1.58-1.83-6.29-24.71-7.06-28.95-1.13-6.28-3.98-16.43-.88-21.95,1.77-3.15,6.4-5.08,8.41-8.07-3.17.05-16.15,4.17-16.86,6.66l-.04,96.75c.31,2.25,2.87,9.01,4.06,10.94,1.35,2.19,8.21,7.42,7.85,9.13-.78,3.69-19.01-2.08-22.5-1.57-5.84.02-12.29.98-17.96,1.13-23.69.63-10.43-4.88-5.13-14.13.77-1.35,4.59-9.85,4.59-10.41v-72.5c-3.94-.1-6.71,3.74-10.11,5.39-2.67,1.29-16.31,5.42-16.56,7.05,1.55,20.21.21,40.72.7,61.04.88,4.68,10.23,6.48,8.96,10.01l-53.48-2.49c-1.32-.07-2.8-1.06-2.5-2.48.52-2.43,12.5-4.85,13.93-14.08,2.32-15.03-2.1-34.49.73-49.96-13.55-6.83-23.04-15.03-31.67-27.48v-8ZM162,157.5v-45.5l-9.05,7.45c-2.14,3.75.27,24.51,1.07,30.04.61,4.19,1.1,9.67,4.48,12.5.48,0,3.35-3.8,3.5-4.48Z"/>
      <path class="cls-8" d="M411,0l-.99,13c4.38-.84,17.47-7.07,20.95-5.53,1.39.61,7.47,8.19,9.01,10.06,6.52,7.93,11.73,16.94,17.82,25.18.91,18.48-1.45,36.8-2.67,55.18,6.82,2.76,5.3-1.6,8.05-5.26,3.48-4.63,26.66-17.78,32.41-18.58,6.57-.92,18.81,8.99,22.84,14.04,5.67,7.11,7.02,16.52,7.57,25.43.69,11.2,1.7,37.63-.07,47.9-1.94,11.25-11,17.01-20.7,21.29-15.01,6.63-18.55,3.2-29.74-6.69-9.09-8.03-14.56-12.81-15.51-25.49-1.05-13.93-.07-29.32-1.13-43.39-7.74-4.71-8.45,1.56-15.15,5.03-3.72,1.93-17.47,6.5-21.16,5.86-4.65-.81-8.26-16.24-12.51-19.04.12,5.14-.21,10.34,0,15.49.48,11.91,2.85,25.03,2.89,36.9,0,.83-.87,7.64-2.89,5.61-1.12-1.13-3.56-12.64-7-14l-1.02,64c-4.19-1.93-4.62-6.88-7.49-9.98-1.27.96-1.72,2.46-2.06,3.92-1.85,7.95-2.68,24.64-3.43,33.57-.57,6.7-.49,13.76-1.01,20.49h-2c-2.21-10.79-4.22-21.73-5.87-32.63-3.33-21.91-8.98-50.47-10.11-71.9-.04-.81-.49-2.37.47-2.46,2.21,1.36,4.61,6.65,7.52,5.48l-8.01-62.95c.73-3.74,8.32,2.98,9.51,3.46,1.28.51,1.84-.22,1.5-1.49L371,0h40ZM409,25.5v63.5c4.22-.14,8.46-1.46,12.62-1.88,3.94-.4,5.71,2.83,6.44-4.56.84-8.53-.77-18.4-.02-27.1-2.26-5.89-.27-29.15-2.93-32.88-1.42-2-15.22-.02-16.11,2.92ZM497.76,105.21c-2.11-2.31-13.87.7-14.67,6.34-1.54,10.89-1.06,45.09.97,55.89.43,2.31,4.58,8.01,6.59,8.39.99.19,7.41-3.3,8.07-4.11,1.11-1.36,2.09-6.3,2.27-8.24.97-10.26.57-26.48,0-36.98-.18-3.31-1.8-19.73-3.23-21.3Z"/>
      <path class="cls-7" d="M736,94l-22.46,20.08c-12.45,1.98-1.26-6.58-.69-9.82.4-2.31-4.49-19.91-5.79-20.82-5.52-3.89-3.06,6.83-3.01,9.02.56,26.66-1.3,56.91.92,83.07,1.14,13.48,11.38,14.35,22.03,17.99,1.07.37,3.89.05,2.99,1.96-2.1,4.49-19.79,2.04-24.36,1.38-10.63-1.55-20.48-5.88-31.25-7.75-1.96-.34-13.98-.11-6.78-5.01,4.3-2.92,7.42-2.38,9.9-9.1,2.41-6.54,2.57-35.43,2.54-44.56-.04-11.89-.39-27.9-1.33-39.7-.5-6.23-4.75-2.53-6.28-5.74-1.16-2.43,17.47-19.03,20.55-21.53,10.66-8.68,9.66-6.71,10.02,6.52,2.7,2.68,14.73-10.81,19.81-7.8,3.02,1.79,9.33,21.29,13.19,24.8v7Z"/>
      <path class="cls-6" d="M356,86.01c-7.71,20.63-17.52,41.04-27.82,60.67-7.98,15.2-17.24,32.15-26.37,46.63-1.82,2.88-10.53,16.74-12.24,17.76-4.43,2.65-28.46-1.88-34.78-3.36-4.8-1.13-31.53-9.81-33.31-12.69-2.83-4.56,8.23-19.82,12.25-20.87,1.04-.27,20.64,2,21.27,2.87,2.66,3.64-12.54,4.43-14.96,6.53-1.34,1.16-4.58,7.63-3.09,8.95,1.74,1.54,23.64,4.29,27.56,4.5s13.67.72,16.88-1.1c1.83-1.04,9.98-15.31,11.62-18.38,1.73-3.22,5.73-9.31,5.57-12.53l-17.08-62.98c-.69-3.87-7.04-3.42-3.53-7.55l37.02-1.44c-.3,5.08-6.86,3.32-7.09,8.48-.3,6.82,5.82,23.16,7.59,30.51,2.79-3.3,5.82-7.34,7.9-11.1,2.73-4.95,10.94-22.83,11.45-27.65.49-4.55-5.59-4.24-5.84-8.23l26.99,1Z"/>
      <path class="cls-3" d="M190.5,168c-4.75-1.36,3.9-7.17,4.92-9.07,2.38-4.44.52-7.14.53-11.38.08-27.85.05-55.71.06-83.55-.95-.95-15.99,2.08-15-2.48l27.04-21.97c1.9-2.74,9.34-1.19,9.97,1.16.71,2.64-1.45,13.68,1.51,14.29,3.64.75,10.59-10.96,16.9-4.92,2.85,2.73,11.53,26.55,11.55,30.56,0,.96-.05,1.43-.45,2.32-.86,1.9-20.47,15.43-21.99,15.04-3.49-.91.12-4.98.42-6.54.41-2.14.07-4.55-.22-6.7-.32-2.42-3.45-16.18-4.22-17.77-.2-.42-1.17-1.23-1.5-.98l-.79,2.8c1.67,22.53,1.59,45.2,2.78,67.69.33,6.16.05,19.06,2.68,24.25.97,1.9,4.11,2.69,5.29,4.77,0,.53-3.92,2.5-4.48,2.5h-35Z"/>
      <path class="cls-4" d="M277,47c1.32,1.52,11.91-10.06,17-7.54,3.05,1.51,13.13,26.95,11.52,30.5-.73,1.6-20.51,17.15-21.87,16.92-1.18-.2-3.48-3.02-3.69-4.42-.29-1.92,1.77-1.21,2.37-2.67,2.79-6.84-1.97-14.04-2.33-20.79-1.35-.27-2.42.35-2.83,1.66-.58,1.91-1.08,11.86-1.2,14.77-.88,21.54-1.55,49.6-.6,70.89.23,5.22,2.96,9.87,7.62,12.16-1.35,3.17-9.57-.29-12.51-.48-3.99-.26-9.02-.26-13.02-.06s-13.55,3.35-16.2.78c-3.61-3.5,1.55-4.73,3.28-6.7,8.38-9.56,5.05-30.04,5.41-42.58.38-13.1.54-26.58,1-40,.09-2.65,2.19-13.05,1.04-14.46-.2-.25-4.8,1.91-4.91-2.36l21.96-24.09c1.32-1.89,7.96-2.19,7.96-.05v18.5Z"/>
      <path class="cls-2" d="M599,75h17c1.73,16.23-3.76,9.22-13.49,11-4.28.79-1.56,3.75-1.56,6.53-.06,28.97-.86,59.08.02,88.03.09,3.1.52,15.91,1.23,17.75.35.92.68,1.09,1.39,1.61.76.56,12.34,6.85,13.08,6.91,1.66.15,8.63-5.2,8.34-7.82-2-2.63-18.16.1-16.99-7.01l33,2-.2,3.29c-4.86,3.57-12.01,16.49-16.85,18.15s-8.52-.55-12.91-1.99c-12.41-4.07-23.85-10.75-34.84-17.65l-1.21-107.3c.04-4.37-8.25-1.71-9.01-2.49-1.33-6.28,1.05-5.05,3-7.47,10.26-12.82,16.6-26.15,25.57-38.47.77-1.06,4.44-4.78,4.44-1.56v36.5Z"/>
      <path class="cls-1" d="M559,28c1.12,1.08-1.42,28.55,1.05,30.95.59.58,9.97-.31,11.96.05v12.01c-12.5-.93-12.26-.24-13.05,11.45-1.97,29.53-1.32,61.34-1.92,91.08-.12,5.93-3.32,13.6.94,18.98,1.51,1.91,16.57,11.42,6.36,12.26-3.41.28-29.02-15.7-30.13-19.49.51-5.57-1.21-11.5-1.25-16.74-.08-11.32,1.05-23.57,1.07-34.99.03-20.85-.09-41.72-.02-62.56-4.28-1.49-22.88,1.34-15.91-5.4,9.04-8.74,21.79-16.02,30.89-26.1,2.94-3.25,4.74-8.09,6.94-10.86.76-.96,2.87-.82,3.07-.63Z"/>
      <path class="cls-5" d="M637,160.5c.58,3.52,6.63,13.8,11.01,11.06,3.5-2.19,6.18-27.81,9.51-28.56,2.15-.49,12.15,13.27,8.47,16.3-4.03,2.77-14.08,20.06-17.48,20.71-2.05.39-12.93.28-14.52-.5-1.43-.7-2.17-3.41-3.45-4.55-6.01-5.4-11.19-11.47-17.54-16.42-4.01-5.59-1.16-12.35-1.01-18.05.18-7.13.57-13.97,1-21,.41-6.63-.38-25.75,2.56-30.44,1.86-2.97,17.55-15.67,21.13-17.87,2.47-1.52,4.21-3.13,7.36-2.74s21.06,9.71,23,12.04c1.56,1.88,10.17,25.95,9.96,27.99-.16,1.57-8.57,14.05-9.68,14.42-3.62,1.21-20.27-5.46-25.97-5.8-1.86-.11-3.19-.33-4.35,1.43,1.49,12.67-2,29.92,0,42ZM643.89,79.12c-.4-.33-3.25-.33-3.76.01-1.5,1-4.13,26-3,27.73,5.73,1.84,11.81,3.05,17.87,3.13,2.21-2.23-10.8-26.11-11.11-30.88Z"/>
    </g>
  </g>
</svg>