<?xml version="1.0" encoding="UTF-8"?>
<svg id="Layer_1" data-name="Layer 1" xmlns="http://www.w3.org/2000/svg" viewBox="0 0 154.9 191.49">
  <defs>
    <style>
      .cls-1 {
        fill: #3c3c3c;
      }

      .cls-1, .cls-2, .cls-3, .cls-4, .cls-5, .cls-6, .cls-7, .cls-8, .cls-9, .cls-10, .cls-11, .cls-12, .cls-13, .cls-14, .cls-15, .cls-16 {
        stroke: #231f20;
      }

      .cls-1, .cls-2, .cls-3, .cls-4, .cls-5, .cls-7, .cls-8, .cls-9, .cls-10, .cls-11, .cls-12, .cls-13, .cls-14, .cls-17, .cls-15, .cls-16 {
        stroke-miterlimit: 10;
      }

      .cls-2 {
        fill: #a72223;
      }

      .cls-2, .cls-15 {
        stroke-width: .5px;
      }

      .cls-3, .cls-6, .cls-8, .cls-17 {
        stroke-width: 2px;
      }

      .cls-3, .cls-7, .cls-9 {
        fill: #fccfb1;
      }

      .cls-4 {
        fill: #e1cd20;
      }

      .cls-4, .cls-10, .cls-11, .cls-13, .cls-16 {
        stroke-width: .75px;
      }

      .cls-5, .cls-18 {
        fill: #292627;
      }

      .cls-6 {
        stroke-linecap: round;
        stroke-linejoin: round;
      }

      .cls-6, .cls-8, .cls-17 {
        fill: none;
      }

      .cls-19 {
        fill: #231f20;
      }

      .cls-9 {
        stroke-width: 1.5px;
      }

      .cls-10 {
        fill: #81352c;
      }

      .cls-11, .cls-20 {
        fill: #573800;
      }

      .cls-12 {
        fill: #282829;
      }

      .cls-13 {
        fill: #ecd0c1;
      }

      .cls-14 {
        fill: #383737;
      }

      .cls-17 {
        stroke: #000;
      }

      .cls-15 {
        fill: #e6e6e9;
      }

      .cls-16 {
        fill: #7e323f;
      }
    </style>
  </defs>
  <path id="scarf" class="cls-16" d="M38.54,120.18h77.3c.28,0,.51.23.51.51v8.16c0,3.17-2.57,5.74-5.74,5.74H44c-3.01,0-5.45-2.44-5.45-5.45v-8.96h0Z"/>
  <rect id="scarf-2" data-name="scarf" class="cls-4" x="84.79" y="120.18" width="17.43" height="14.41"/>
  <rect id="scarf-3" data-name="scarf" class="cls-4" x="50.48" y="120.18" width="15.1" height="14.41"/>
  <g id="body">
    <rect class="cls-18" x="42.01" y="136.79" width="69.86" height="33.74"/>
    <path class="cls-1" d="M50.26,170.4c0,4.11.41,8.58-2.22,10-.93.5-2.01.74-2.81,1.43-1.3,1.11-1.45,3.21-.63,4.71s2.43,2.45,4.09,2.87,3.4.38,5.11.34c6.58-.16,13.16-.31,19.75-.47.13-5.7.29-13.16.29-18.88"/>
    <path class="cls-14" d="M78.71,170.85c0,5.87.05,12.72.21,18.48,7.55.93,14.01,1.01,21.7.86,2.48-.05,5.24-1.17,6.23-3.45.58-1.33.34-2.97-.59-4.08s-2.5-1.64-3.91-1.31c.01-2.92.04-7.17.05-10.09"/>
    <path class="cls-5" d="M100.18,143.81c.33,2.94.66,5.87.99,8.81.29,2.55.59,5.16,1.67,7.48s3.09,4.35,5.59,4.72c3.38.5,6.59-2.25,7.74-5.53s.69-6.9-.04-10.3c-1.09-5.05-2.35-9.64-4.53-14.31-23.14.27-46.24-.24-69.39.04-2.82,5.09-5.18,10.92-6.85,16.52-1.07,3.59-1.79,7.85.48,10.81,1.96,2.57,5.78,3.2,8.7,1.9s4.97-4.2,5.86-7.33.75-6.47.26-9.69"/>
    <path class="cls-5" d="M39.29,164.33c-.26.95.36,4.34.95,5.33.5.84,1.85.62,2.83.63,17.2.27,34.4.53,51.6.8,5.78.09,11.55.3,17.33.36,1.01.01,1.85-.8,1.87-1.82.04-2.08-.51-4.6-.52-6.31"/>
    <path class="cls-12" d="M49.42,180.09h24.41v10.9h-24.41c-2.94,0-5.33-2.39-5.33-5.33v-.23c0-2.94,2.39-5.33,5.33-5.33Z"/>
    <path class="cls-13" d="M111.55,163.71h-4.24c-2.44,0-3.97-1.9-4.79-4.26l-.72-3.36h14.89l-.21,1.43c-.17,1.17-.53,2.31-1.11,3.34-.93,1.65-1.97,2.85-3.82,2.85Z"/>
    <path class="cls-13" d="M43.45,164.29h-3.68c-1.75,0-3.07-1.21-4.08-2.67-.61-.88-.96-1.91-1.03-2.98l-.13-1.76,15.87-.12-.91,2.64c-.31.91-.75,1.78-1.37,2.51-1.21,1.42-2.89,2.36-4.66,2.36Z"/>
    <path class="cls-12" d="M84.04,180.09h23.12v10.9h-23.12c-2.94,0-5.33-2.39-5.33-5.33v-.23c0-2.94,2.39-5.33,5.33-5.33Z" transform="translate(185.87 371.08) rotate(-180)"/>
  </g>
  <rect id="scarf-4" data-name="scarf" class="cls-16" x="53.5" y="134.59" width="18.8" height="26.08"/>
  <path id="tie" class="cls-15" d="M75.2,140.42l-4.07-5.93h12.65s-4.07,5.93-4.07,5.93c-1.08,1.58-3.42,1.58-4.5,0Z"/>
  <path id="pocket" class="cls-2" d="M84.71,140.42h9.67c.43,0,.77.35.77.77v5.1c0,2.95-2.4,5.35-5.35,5.35h0c-3.24,0-5.87-2.63-5.87-5.87v-4.57c0-.43.35-.77.77-.77Z"/>
  <path id="hair" class="cls-20" d="M131.32,97.9c5.04-1.17,9.5-4.64,11.86-9.25s2.59-10.25.6-15.03c1.8,1.78,5.01,2.45,7.02.91,2.43-1.86,2.95-4.21,2.81-7.72-.03-.76-.63-1.95-.77-2.96-1.21-8.88-5.58-17.92-9.62-25.42-2.24-4.15-5.19-7.87-8.7-11.02-12.01-10.8-24.93-23.85-41.38-26.03-12.62-1.67-25.93,2.46-37.66,7.42-5.68-1.99-12-1.78-17.76-.03s-10.99,4.99-15.58,8.88C8.57,29.15,5.55,47.43.95,64.63c-.3,1.12-.3,2.32.11,3.41,1.48,3.9,6.25,3.17,7.66.37,0,6.85.05,13.95,2.89,20.19s9.31,11.38,16.1,10.41c17.25-2.45,34.86,1.35,52.27,2.25,10.38.53,20.8,1.07,31.15.14,6.62-.59,13.72-2,20.2-3.5Z"/>
  <path id="hair-2" data-name="hair" class="cls-17" d="M131.59,97.9c5.04-1.17,9.5-4.64,11.86-9.25s2.59-10.25.6-15.03c1.8,1.78,5.01,2.45,7.02.91,2.43-1.86,2.95-4.21,2.81-7.72-.03-.76-.63-1.95-.77-2.96-1.21-8.88-5.58-17.92-9.62-25.42-2.24-4.15-5.19-7.87-8.7-11.02-12.01-10.8-24.93-23.85-41.38-26.03-12.62-1.67-25.93,2.46-37.66,7.42-5.68-1.99-12-1.78-17.76-.03s-10.99,4.99-15.58,8.88C8.83,29.15,5.82,47.43,1.21,64.63c-.3,1.12-.3,2.32.11,3.41,1.48,3.9,6.25,3.17,7.66.37,0,6.85.05,13.95,2.89,20.19s9.31,11.38,16.1,10.41c17.25-2.45,34.86,1.35,52.27,2.25,10.38.53,20.8,1.07,31.15.14,6.62-.59,13.72-2,20.2-3.5Z"/>
  <g id="face">
    <ellipse class="cls-7" cx="21.67" cy="98.89" rx="5.09" ry="5.85"/>
    <ellipse class="cls-7" cx="136.06" cy="99.96" rx="5.09" ry="5.85"/>
    <path class="cls-3" d="M29.45,36.25h99.18c3.74,0,6.77,3.04,6.77,6.77v51.44c0,15.49-12.58,28.07-28.07,28.07h-56.17c-15.73,0-28.49-12.77-28.49-28.49v-51.02c0-3.74,3.04-6.77,6.77-6.77Z"/>
  </g>
  <path id="eyebrown" class="cls-11" d="M90.06,77.43c0-1.27.69-2.47,1.65-3.29s2.17-1.31,3.39-1.65c1.97-.55,4.02-.76,6.06-.96,2.5-.25,5-.5,7.51-.75,1.83-.18,4-.22,5.11,1.24.86,1.14.65,2.86-.22,3.99s-2.27,1.76-3.68,2.05-2.85.28-4.28.39c-3.45.27-6.38,1.41-9.52,2.72-2.55,1.06-6.01-.8-6.02-3.72Z"/>
  <path id="hair-3" data-name="hair" class="cls-20" d="M18.04,60.01c-.89-5.33-1.79-10.74-1.2-16.11s2.88-10.79,7.26-14.05c3.63-2.7,8.26-3.65,12.72-4.53,14.98-2.95,30.07-5.91,45.35-5.96,15.28-.05,30.93,3,43.71,11.22,3.34,2.15,8.23,3.89,10.01,7.41,2.01,3.98,3.14,10.67-.66,13.46,1.18,6.66-.68,12.85.5,19.51.47,2.65.93,5.42.14,8s-3.27,4.87-5.98,4.54c-2.64-.32-4.36-2.79-5.74-5.03-4.89-7.96-9.79-15.92-14.68-23.89-.89,2.38-.52,5.02-.06,7.51s.97,5.08.35,7.54-2.77,4.76-5.34,4.67c-2.2-.08-3.93-1.77-5.43-3.35-7.08-7.46-14.29-14.74-21.51-22.07,1.08,5.52,1.26,11.21.53,16.79-.43,3.28-1.86,7.19-5.19,7.65-1.92.27-3.81-.82-5.04-2.29s-1.95-3.27-2.73-5.02c-2.74-6.14-6.52-11.82-11.14-16.75-3.03-3.23-7.49-6.36-11.63-4.69-3.4,1.37-4.77,5.3-5.76,8.79-1.94,6.86-3.87,13.71-5.81,20.57-.54,1.9-1.11,3.87-2.4,5.37s-3.53,2.42-5.36,1.61c-1.92-.85-2.64-3.13-3.07-5.16-1.51-7.08-2.14-14.34-1.86-21.57"/>
  <path id="hair-4" data-name="hair" class="cls-8" d="M19.07,54.19c-.27,7.23.35,14.49,1.83,21.57.42,2.03,1.13,4.3,3.01,5.16,1.8.81,4-.1,5.27-1.61s1.84-3.47,2.36-5.37c1.9-6.86,3.81-13.71,5.71-20.57.97-3.48,2.32-7.41,5.66-8.79,4.07-1.67,8.45,1.46,11.43,4.69,4.54,4.93,8.26,10.61,10.95,16.75.76,1.74,1.47,3.55,2.68,5.02s3.07,2.56,4.96,2.29c3.27-.46,4.68-4.38,5.1-7.65.72-5.58.54-11.27-.52-16.79,7.1,7.33,14.18,14.6,21.14,22.07,1.47,1.58,3.18,3.27,5.34,3.35,2.53.1,4.64-2.2,5.25-4.67s.1-5.04-.34-7.54.65-5.13,1.53-7.51c4.81,7.96,9.17,14.79,13.98,22.75,1.35,2.24,2.03,5.84,4.62,6.16,2.67.33,5.1-1.96,5.88-4.54s1.59-6.16,1.63-8.85c.1-6.99-.09-13.77-1.32-20.85"/>
  <path id="mouth" class="cls-6" d="M72.61,112.16c2.43,3.2,7.58,3.86,10.74,1.39"/>
  <path id="eyebrown-2" data-name="eyebrown" class="cls-11" d="M40.73,76.92c-.75-1.32-.59-3.15.51-4.19,1.34-1.27,3.45-1.07,5.28-.8,3.78.57,7.56,1.14,11.34,1.71,1.51.23,3.07.47,4.37,1.28s2.27,2.35,1.94,3.84c-.3,1.38-1.63,2.34-3.01,2.65s-2.81.08-4.21-.14c-3.35-.54-6.71-1.08-10.06-1.62-2.16-.35-4.97-.55-6.16-2.74Z"/>
  <path id="scar" class="cls-10" d="M45.37,61.92l.43-.45,3.58-.25c.24-.02.43-.21.43-.45.1-3.81-1.48-7.64-4.22-10.29-.3-.29-.79-.09-.79.33.02,1.6.11,4.3.12,5.71,0,.24-.19.44-.43.45-1.47.1-2.94.19-4.42.29-.25.02-.45.23-.44.48.18,4.46,1.89,8.85,4.77,12.26.28.33.81.15.82-.28l.14-7.8Z"/>
  <path id="glasses" class="cls-9" d="M67.46,95.7c0,9.89-8.02,17.91-17.91,17.91s-17.91-8.02-17.91-17.91,8.02-17.91,17.91-17.91,17.91,8.02,17.91,17.91ZM105.4,76.19c-9.89,0-17.91,8.02-17.91,17.91s8.02,17.91,17.91,17.91,17.91-8.02,17.91-17.91-8.02-17.91-17.91-17.91ZM22.67,95.02l9.09.5M87.19,95.05l-19.44.41M123.79,94.84c3.42-.14,3.76-.26,7.18-.4-.04-.05,4.12-.19,4.08-.24"/>
  <path id="eyes" class="cls-19" d="M57.08,92.25c0,3.94-3.2,7.14-7.14,7.14s-7.14-3.2-7.14-7.14,3.2-7.14,7.14-7.14,7.14,3.2,7.14,7.14ZM104.97,85.11c-3.94,0-7.14,3.2-7.14,7.14s3.2,7.14,7.14,7.14,7.14-3.2,7.14-7.14-3.2-7.14-7.14-7.14Z"/>
</svg>