<?xml version="1.0" encoding="UTF-8"?>
<svg id="Layer_1" data-name="Layer 1" xmlns="http://www.w3.org/2000/svg" viewBox="0 0 196.32 191.61">
  <defs>
    <style>
      .cls-1, .cls-2 {
        fill: #94683d;
      }

      .cls-3 {
        fill: #3c3c3c;
      }

      .cls-3, .cls-4, .cls-5, .cls-6, .cls-7, .cls-8, .cls-9, .cls-10, .cls-11, .cls-2, .cls-12, .cls-13, .cls-14, .cls-15 {
        stroke: #231f20;
      }

      .cls-3, .cls-4, .cls-5, .cls-6, .cls-7, .cls-9, .cls-10, .cls-11, .cls-2, .cls-12, .cls-13, .cls-14, .cls-15 {
        stroke-miterlimit: 10;
      }

      .cls-4 {
        fill: #a72223;
      }

      .cls-4, .cls-2, .cls-14 {
        stroke-width: .5px;
      }

      .cls-5, .cls-8, .cls-10 {
        stroke-width: 2px;
      }

      .cls-5, .cls-9 {
        fill: #fccfb1;
      }

      .cls-6 {
        fill: #e1cd20;
      }

      .cls-6, .cls-12, .cls-15 {
        stroke-width: .75px;
      }

      .cls-7, .cls-16 {
        fill: #292627;
      }

      .cls-8, .cls-10, .cls-17 {
        fill: none;
      }

      .cls-8, .cls-17 {
        stroke-linecap: round;
        stroke-linejoin: round;
      }

      .cls-18 {
        fill: #231f20;
      }

      .cls-17 {
        stroke: #000;
      }

      .cls-11 {
        fill: #282829;
      }

      .cls-12 {
        fill: #ecd0c1;
      }

      .cls-13 {
        fill: #383737;
      }

      .cls-14 {
        fill: #e6e6e9;
      }

      .cls-15 {
        fill: #7e323f;
      }
    </style>
  </defs>
  <g>
    <path class="cls-1" d="M111.12,152.33c-7.34,0-14.85-1.13-22.11-2.22-7.18-1.08-14.61-2.2-21.79-2.2-2.5,0-4.82.13-7.07.4-.06.13-.14.24-.25.34-.19.17-.43.26-.67.26s-.5-.09-.69-.28c-.03-.03-.07-.07-.1-.12,0,0,0,0,0,0-1.71-2.21-2.95-4.77-3.62-7.48-2.52,1.08-5.13,2.09-7.95,2.41-.54.06-1.1.09-1.64.09-3.14,0-5.9-1.02-7.78-2.86-1.26-1.24-2.21-2.91-2.82-4.97-.27-.92-.46-1.85-.57-2.79-1.57,1.89-3.31,3.65-5.19,5.23-2.88,2.41-5.6,3.64-8.11,3.64-.75,0-1.48-.11-2.18-.33-2.3-.73-4.22-2.63-5.71-5.66-1.62-3.3-2.52-7.82-.82-11.53-3.68-.05-7.54-2.74-9.39-6.57-1.97-4.06-1.85-8.69-1.42-13.08.02-.24.05-.54.17-.86.18-.5.51-.85.78-1.13.66-.7,1.28-1.42,1.91-2.13,2.36-2.7,4.8-5.48,8.48-7.09.84-.37,1.69-.51,2.52-.66l.16-.03c.49-.08.84-.34,1.07-.77.39-.72.38-1.81-.03-2.77-.53-1.23-1.47-2.27-2.46-3.36-.49-.54-.99-1.09-1.45-1.68-4.5-5.74-4.1-14.74.89-20.06,1.15-1.22,2.47-2.23,3.75-3.21.76-.58,1.56-1.19,2.28-1.82,6.13-5.33,8.87-13.5,11.15-21.41.94-3.26,3.39-8.2,5.45-11.02l.29-.4c2.64-3.61,5.38-7.34,8.97-10.19,1.78-1.41,3.74-2.58,5.64-3.71.73-.44,1.46-.87,2.18-1.32.77-.48,1.54-.98,2.3-1.48,2.03-1.32,4.12-2.69,6.39-3.73,5.03-2.3,10.52-2.86,15.83-3.39l7.49-.76c4.06-.41,8.15-.62,12.16-.62,8.39,0,16.62.9,24.48,2.69,3.83.87,7.68,1.91,11.42,3.08,3.48,1.09,7.48,2.46,10.88,4.95,3.41,2.5,5.97,6,8.03,9.1,7.7,11.59,13.05,21,15.91,27.99.45.78.64,1.13.73,1.31l.06.11c.63.76,1.19,1.5,1.75,2.23,1.67,2.19,3.11,4.09,5.31,5.41.99.6,2.04,1.17,3.06,1.73,3.17,1.73,6.44,3.51,8.88,6.55,1.2,1.5,2.01,3.18,2.33,4.86.97,5.05-2.04,8.42-4.96,11.68-2.04,2.28-3.97,4.44-4.51,7.09,1.38,1.77,3.67,2.64,6.09,3.56,4.02,1.53,8.57,3.25,8.69,9.7.03,1.45-.23,2.96-.79,4.64-.1.3-.2.61-.3.91-.58,1.82-1.24,3.89-2.64,5.47-1.12,1.26-2.64,2.05-4.14,2.14.21.87.52,1.75.85,2.65.56,1.57,1.15,3.2,1.21,4.97.21,5.65-4.89,9.84-9.79,10.92-1.27.28-2.58.42-4.01.42-2.42,0-4.84-.41-7.03-.91,0,1.24-.63,2.5-1.88,3.74-2.72,2.71-6.55,4.27-10.5,4.27-1.17,0-2.33-.14-3.44-.42-3.18-.79-6.05-2.73-8.08-5.33-.19,1.06-.55,2.14-1.06,3.17-1.26,2.52-3.17,4.52-5.01,6.46-5.08,5.33-13.45,5.67-20.83,5.96-1.05.04-2.09.08-3.1.14-1.18.07-2.41.1-3.65.1h0Z"/>
    <path class="cls-18" d="M97.17,2c8.15,0,16.29.86,24.26,2.66,3.82.87,7.61,1.89,11.35,3.06,3.72,1.16,7.45,2.5,10.59,4.81,3.18,2.34,5.6,5.56,7.79,8.84,5.8,8.73,12.41,19.45,15.84,27.88.93,1.62.76,1.41.93,1.62,2.47,3.01,4.17,5.96,7.29,7.85,4.06,2.45,8.59,4.2,11.67,8.05,1.04,1.29,1.82,2.8,2.13,4.42,1.55,8.11-8.49,11.68-9.54,18.82,3.81,5.64,14.67,3.44,14.84,13.04.03,1.47-.27,2.91-.74,4.3-.69,2.06-1.26,4.36-2.74,6.04-.93,1.05-2.29,1.81-3.67,1.81-.31,0-.62-.04-.93-.12.33,3.01,2.16,5.74,2.27,8.77.18,4.84-4.27,8.87-9.01,9.9-1.25.27-2.52.39-3.79.39-2.87,0-5.76-.6-8.6-1.31-.36-.39-.84-.65-1.33-.65-.2,0-.41.05-.6.15.64.17,1.28.34,1.93.51.32.35.54.81.56,1.28.07,1.21-.72,2.31-1.58,3.16-2.56,2.55-6.18,3.97-9.79,3.97-1.08,0-2.15-.13-3.2-.39-4.17-1.04-7.75-4.18-9.39-8.15-.1-.38-.23-.75-.4-1.11.12.38.25.75.4,1.11.56,2.14.11,4.51-.89,6.52-1.18,2.36-3.02,4.31-4.84,6.21-5.5,5.77-15.3,5.36-23.26,5.79-1.2.07-2.39.1-3.6.1-14.53,0-29.39-4.42-43.9-4.42-2.7,0-5.39.15-8.07.52.09.09.02.35.08.46-1.87-2.41-3.14-5.27-3.69-8.27-2.83,1.23-5.72,2.47-8.78,2.82-.5.06-1.01.09-1.53.09-2.6,0-5.24-.77-7.08-2.57-1.25-1.23-2.06-2.86-2.56-4.54-.51-1.73-.71-3.55-.59-5.35-1.94,2.7-4.22,5.16-6.77,7.3-2.13,1.79-4.79,3.4-7.46,3.4-.63,0-1.26-.09-1.88-.29-2.37-.75-4.01-2.92-5.11-5.15-1.92-3.9-2.49-8.96.23-12.35-.61.18-1.23.27-1.85.27-3.52,0-7.01-2.75-8.59-6.01-1.86-3.84-1.74-8.31-1.33-12.55.02-.21.04-.42.11-.61.12-.31.35-.56.58-.81,3.07-3.28,5.63-7.05,10.05-8.98.78-.34,1.62-.47,2.45-.62,2.13-.37,2.65-2.9,1.79-4.92-.88-2.04-2.67-3.51-4.05-5.26-4.21-5.36-3.83-13.79.83-18.76,1.77-1.88,4-3.26,5.95-4.95,6.31-5.48,9.12-13.8,11.46-21.89.93-3.21,3.32-8.01,5.3-10.7,2.72-3.72,5.46-7.53,9.07-10.4,2.4-1.91,5.13-3.35,7.73-4.97,2.83-1.77,5.54-3.76,8.58-5.15,4.83-2.21,10.23-2.77,15.52-3.31l7.49-.76c4.01-.4,8.03-.61,12.06-.61M59.24,147.89s.01.01.02.02c0,0-.01-.01-.02-.02M97.17,0c-4.04,0-8.16.21-12.26.62l-7.49.76c-5.14.52-10.96,1.11-16.15,3.48-2.34,1.07-4.46,2.46-6.52,3.8-.76.49-1.51.99-2.28,1.47-.71.45-1.44.88-2.16,1.31-1.93,1.15-3.92,2.33-5.75,3.79-3.69,2.93-6.47,6.72-9.15,10.38l-.29.4c-2.16,2.95-4.62,7.92-5.61,11.33-2.24,7.77-4.93,15.78-10.85,20.93-.7.61-1.44,1.18-2.23,1.77-1.31,1-2.67,2.04-3.87,3.32-5.31,5.67-5.74,15.25-.95,21.36.48.62,1,1.19,1.5,1.73.94,1.03,1.82,2,2.28,3.08.33.78.27,1.53.07,1.9-.09.16-.18.23-.36.26l-.16.03c-.84.15-1.8.31-2.75.73-3.89,1.7-6.4,4.57-8.84,7.35-.61.7-1.24,1.42-1.87,2.09-.3.32-.74.79-1,1.48-.16.44-.2.85-.23,1.11-.44,4.54-.56,9.33,1.52,13.62,1.79,3.69,5.3,6.4,8.89,7.01-1.15,3.74-.23,7.94,1.32,11.1,1.61,3.28,3.73,5.36,6.3,6.17.8.25,1.63.38,2.48.38,2.74,0,5.69-1.3,8.75-3.87,1.39-1.17,2.7-2.42,3.93-3.76.07.28.14.56.23.84.66,2.23,1.69,4.04,3.08,5.4,2.07,2.03,5.08,3.14,8.48,3.14.58,0,1.17-.03,1.75-.1,2.54-.29,4.95-1.13,7.17-2.04.75,2.43,1.93,4.72,3.49,6.73,0,0,0,0,0,0,.06.07.12.14.18.2.39.39.9.59,1.41.59.47,0,.94-.17,1.32-.5.06-.05.11-.11.16-.16,2.06-.23,4.19-.34,6.48-.34,7.1,0,14.49,1.11,21.64,2.19,7.3,1.1,14.84,2.23,22.26,2.23,1.26,0,2.51-.03,3.71-.1,1-.05,2.03-.1,3.08-.14,7.57-.3,16.16-.64,21.52-6.27,1.81-1.9,3.86-4.05,5.18-6.7.26-.51.47-1.03.66-1.55,2.02,2.04,4.58,3.55,7.35,4.24,1.19.3,2.43.45,3.68.45,4.21,0,8.29-1.66,11.2-4.56,1.06-1.06,1.74-2.15,2.02-3.25,1.95.4,4.06.7,6.18.7,1.47,0,2.89-.15,4.22-.44,7.1-1.56,10.75-7.31,10.58-11.93-.07-1.92-.68-3.62-1.27-5.27-.18-.52-.37-1.02-.52-1.52,1.34-.35,2.63-1.15,3.62-2.28,1.54-1.74,2.23-3.91,2.84-5.83.1-.3.19-.6.29-.9.59-1.78.87-3.41.84-4.97-.13-7.12-5.23-9.06-9.33-10.62-2.1-.8-4.11-1.56-5.36-2.89.62-2.19,2.34-4.13,4.16-6.16,2.93-3.28,6.25-7,5.19-12.53-.35-1.84-1.23-3.67-2.53-5.3-2.56-3.2-5.93-5.03-9.18-6.8-1.01-.55-2.05-1.12-3.02-1.71-2.03-1.23-3.42-3.05-5.03-5.16-.54-.71-1.1-1.45-1.72-2.2h0c-.09-.18-.28-.52-.71-1.28-2.89-7.05-8.26-16.5-15.98-28.11-2.1-3.17-4.73-6.75-8.27-9.35-3.52-2.59-7.62-3.99-11.18-5.1-3.77-1.18-7.64-2.22-11.5-3.1C113.95.91,105.63,0,97.17,0h0Z"/>
  </g>
  <path id="scarf" class="cls-15" d="M61.58,120.3h77.3c.28,0,.51.23.51.51v8.16c0,3.17-2.57,5.74-5.74,5.74h-66.62c-3.01,0-5.45-2.44-5.45-5.45v-8.96h0Z"/>
  <rect id="scarf-2" data-name="scarf" class="cls-6" x="107.83" y="120.3" width="17.43" height="14.41"/>
  <rect id="scarf-3" data-name="scarf" class="cls-6" x="73.52" y="120.3" width="15.1" height="14.41"/>
  <g id="body">
    <rect class="cls-16" x="65.04" y="136.91" width="69.86" height="33.74"/>
    <path class="cls-3" d="M73.3,170.53c0,4.11.41,8.58-2.22,10-.93.5-2.01.74-2.81,1.43-1.3,1.11-1.45,3.21-.63,4.71s2.43,2.45,4.09,2.87,3.4.38,5.11.34c6.58-.16,13.16-.31,19.75-.47.13-5.7.29-13.16.29-18.88"/>
    <path class="cls-13" d="M101.74,170.97c0,5.87.05,12.72.21,18.48,7.55.93,14.01,1.01,21.7.86,2.48-.05,5.24-1.17,6.23-3.45.58-1.33.34-2.97-.59-4.08s-2.5-1.64-3.91-1.31c.01-2.92.04-7.17.05-10.09"/>
    <path class="cls-7" d="M123.22,143.93c.33,2.94.66,5.87.99,8.81.29,2.55.59,5.16,1.67,7.48s3.09,4.35,5.59,4.72c3.38.5,6.59-2.25,7.74-5.53,1.15-3.28.69-6.9-.04-10.3-1.09-5.05-2.35-9.64-4.53-14.31-23.14.27-46.24-.24-69.39.04-2.82,5.09-5.18,10.92-6.85,16.52-1.07,3.59-1.79,7.85.48,10.81,1.96,2.57,5.78,3.2,8.7,1.9s4.97-4.2,5.86-7.33.75-6.47.26-9.69"/>
    <path class="cls-7" d="M62.32,164.45c-.26.95.36,4.34.95,5.33.5.84,1.85.62,2.83.63,17.2.27,34.4.53,51.6.8,5.78.09,11.55.3,17.33.36,1.01.01,1.85-.8,1.87-1.82.04-2.08-.51-4.6-.52-6.31"/>
    <path class="cls-11" d="M72.46,180.21h24.41v10.9h-24.41c-2.94,0-5.33-2.39-5.33-5.33v-.23c0-2.94,2.39-5.33,5.33-5.33Z"/>
    <path class="cls-12" d="M134.59,163.83h-4.24c-2.44,0-3.97-1.9-4.79-4.26l-.72-3.36h14.89l-.21,1.43c-.17,1.17-.53,2.31-1.11,3.34-.93,1.65-1.97,2.85-3.82,2.85Z"/>
    <path class="cls-12" d="M66.49,164.42h-3.68c-1.75,0-3.07-1.21-4.08-2.67-.61-.88-.96-1.91-1.03-2.98l-.13-1.76,15.87-.12-.91,2.64c-.31.91-.75,1.78-1.37,2.51-1.21,1.42-2.89,2.36-4.66,2.36Z"/>
    <path class="cls-11" d="M107.08,180.21h23.12v10.9h-23.12c-2.94,0-5.33-2.39-5.33-5.33v-.23c0-2.94,2.39-5.33,5.33-5.33Z" transform="translate(231.94 371.33) rotate(-180)"/>
  </g>
  <rect id="scarf-4" data-name="scarf" class="cls-15" x="76.54" y="134.71" width="18.8" height="26.08"/>
  <path id="tie" class="cls-14" d="M98.24,140.55l-4.07-5.93h12.65s-4.07,5.93-4.07,5.93c-1.08,1.58-3.42,1.58-4.5,0Z"/>
  <path id="pocket" class="cls-4" d="M107.75,140.54h9.67c.43,0,.77.35.77.77v5.1c0,2.95-2.4,5.35-5.35,5.35h0c-3.24,0-5.87-2.63-5.87-5.87v-4.57c0-.43.35-.77.77-.77Z"/>
  <g id="face">
    <ellipse class="cls-9" cx="44.71" cy="99.01" rx="5.09" ry="5.85"/>
    <ellipse class="cls-9" cx="159.1" cy="100.08" rx="5.09" ry="5.85"/>
    <path class="cls-5" d="M52.48,36.38h99.18c3.74,0,6.77,3.04,6.77,6.77v51.44c0,15.49-12.58,28.07-28.07,28.07h-56.17c-15.73,0-28.49-12.77-28.49-28.49v-51.02c0-3.74,3.04-6.77,6.77-6.77Z"/>
  </g>
  <path id="eyes" class="cls-18" d="M78.26,90.71c0,3.94-3.2,7.14-7.14,7.14s-7.14-3.2-7.14-7.14,3.2-7.14,7.14-7.14,7.14,3.2,7.14,7.14ZM126.16,83.57c-3.94,0-7.14,3.2-7.14,7.14s3.2,7.14,7.14,7.14,7.14-3.2,7.14-7.14-3.2-7.14-7.14-7.14Z"/>
  <path class="cls-2" d="M118.63,75.81c-1.68.92-3.03,2.42-3.77,4.19-.19.45-.34.92-.34,1.4s.18.98.56,1.29c.31.24.7.34,1.09.38.56.07,1.13.05,1.69-.05.67-.12,1.31-.36,1.95-.58,3.95-1.36,8.14-2.03,12.32-1.98.72,0,1.44.04,2.15.17.6.11,1.22.28,1.8.13.91-.24,1.46-1.28,1.33-2.22s-.83-1.72-1.65-2.16-1.78-.6-2.72-.67c-2.19-.17-4.39.07-6.58.06-.62,0-1.31-.04-1.87-.36-.63-.35-.75-.63-1.55-.65-1.53-.04-3.07.33-4.41,1.07Z"/>
  <path class="cls-1" d="M52.14,39.26c-4.67,8.81-7.13,18.77-7.1,28.74,0,2.39.17,4.85,1.14,7.03s2.91,4.07,5.28,4.4c2.68.37,5.3-1.33,6.82-3.57s2.18-4.93,2.83-7.55c2.38-9.62,5.2-19.35,10.83-27.5,1.22-1.77,2.86-3.61,5.01-3.68,1.35,4.26,1.13,8.83,1.36,13.29.42,8.16,2.41,16.24,5.82,23.67.84,1.83,2,3.81,3.96,4.29,1.66.4,3.43-.48,4.5-1.81s1.57-3.03,1.9-4.7c2.01-10.07-.85-20.6.93-30.71.34-1.94,1.57-4.34,3.5-3.93.79.17,1.4.8,1.9,1.44,4.73,5.97,5.37,14.24,9.22,20.81,2.54,4.33,6.35,7.73,10.17,10.98,3.83,3.25,8.37,6.62,13.35,5.92.65-.09,1.37-.31,1.7-.88.17-.3.22-.65.25-.99,0,0,0-.03.01-.07,1.37-2.29,1.2-5.33.25-7.87-1.04-2.78-2.87-5.18-4.38-7.73-2.61-4.43-4.24-9.43-4.75-14.55.5-.68,1.5.16,1.88.91,3.64,7.13,8.05,13.86,13.14,20.03,2.83,3.43,6.45,6.96,10.89,6.84.75-.02,1.53-.16,2.14-.61.84-.62,1.19-1.7,1.45-2.71.56-2.2.91-4.52.44-6.74-.62-2.94-2.59-5.37-4.3-7.84-4.8-6.94-7.92-15.03-9.03-23.4-3.08-2.67-6.17-5.33-9.26-7.99-.85-.74-1.72-1.48-2.74-1.97-1.32-.62-2.8-.77-4.26-.88-15.47-1.14-30.98,1.3-46.15,4.55-6.31,1.35-12.62,2.85-18.64,5.18-2.95,1.14-5.89,2.53-8.16,4.74s-3.79,5.39-3.33,8.52"/>
  <path class="cls-1" d="M142.14,63.95c-.29-.13.4-.21.27.11s-.54.4-.64.73c-2.48,8.57,1.53,18.74,8.59,22.85,1.23.71,1.58,2.46.74,3.67-2.05,2.96-5.04,5.19-7.11,8.21-4.72,6.86-3.5,17.9,2.56,23.26.97.86,2.1,1.58,3.28,2,1.57.57,3.04-.9,2.9-2.71-.01-.14-.02-.28-.01-.42.04-1.46.7-2.8,1.32-4.08,7.13-14.67,11.96-31,12.24-47.7.27-16.33-4.19-32.57-13.51-45.06-.41-.55-1.03-.87-1.68-.89-27.78-.65-55.7-4.73-83.33-1.56-2.47.28-4.96.57-7.35,1.29-4.38,1.32-8.3,4.03-12.16,6.71-2.64,1.84-5.4,3.46-8.02,5.34-2.86,2.05-3.94,6.08-4.69,9.79-4.24,20.88-4.8,42.77-1.07,63.77.67,3.8,1.51,7.62,3.2,11,1.61,3.19,4.09,5.96,7.17,7.11.2.07.41.12.61.14,4.38.32,8.71-3.34,10.3-8.05,1.75-5.17.71-11.11-1.59-16-1.9-4.03-4.72-8.39-3.36-12.69.75-2.37,2.62-4.03,3.84-6.15,1.89-3.29,2.01-7.75.31-11.17.15-3.43.82-7.02,1.98-10.21.62-1.71,1.4-3.39,2.58-4.71,1.02-1.15.68-16.17,1.99-16.89,5.07-2.82,11.51-3.86,17.11-4.89,10.64-1.94,22.34-1.08,33.12-1.22,6.67-.09,16.93,1.12,23.56,1.95,3.76.47,4.06,12.78,6.77,15.67,1.6,1.7,2.65,4.11,2.49,6.54-.16,2.43-.25,3.65-2.4,4.26Z"/>
  <path class="cls-10" d="M143,30.55c1.08,8.45,4.22,16.62,9.06,23.62,1.71,2.47,3.68,4.91,4.3,7.84.47,2.22.11,4.54-.44,6.74-.26,1.02-.6,2.09-1.45,2.71-.61.45-1.39.59-2.14.61-4.44.12-8.06-3.41-10.89-6.84-5.09-6.18-9.5-12.91-13.14-20.03-.38-.75-1.39-1.59-1.88-.91.51,5.12,2.15,10.12,4.75,14.55,1.5,2.56,3.34,4.95,4.38,7.73.95,2.54,1.12,5.58-.25,7.87,0,.04-.01.07-.01.07-.03.34-.07.69-.25.99-.33.57-1.05.78-1.7.88-4.97.7-9.52-2.66-13.35-5.92-3.82-3.25-7.64-6.65-10.17-10.98-3.85-6.57-4.49-14.84-9.22-20.81-.5-.64-1.11-1.27-1.9-1.44-1.92-.41-3.16,1.99-3.5,3.93-1.78,10.11,1.09,20.65-.93,30.71-.33,1.67-.83,3.37-1.9,4.7s-2.84,2.21-4.5,1.81c-1.96-.47-3.12-2.45-3.96-4.29-3.41-7.43-5.4-15.5-5.82-23.67-.23-4.46-.01-9.03-1.36-13.29-2.15.07-3.79,1.91-5.01,3.68-5.63,8.16-8.45,17.89-10.83,27.5-.65,2.62-1.3,5.32-2.83,7.55s-4.15,3.93-6.82,3.57c-2.37-.33-4.3-2.21-5.28-4.4s-1.14-4.64-1.14-7.03c-.03-9.97,2.43-19.93,7.1-28.74"/>
  <path class="cls-17" d="M141.49,66.27c-2.68,7.51,1.55,15.83,8.86,21.37,1.13.86.61,3.74-.23,4.95-2.05,2.96-4.35,5.39-6.42,8.4-4.72,6.86-2.98,17.08,3.08,22.44"/>
  <path class="cls-17" d="M45.33,127.17c4.38.32,8.71-3.34,10.3-8.05,1.75-5.17.71-11.11-1.59-16-1.9-4.03-4.72-8.39-3.36-12.69.75-2.37,2.62-4.03,3.84-6.15,1.1-1.91,2.05-3.47,1.4-5.58"/>
  <path class="cls-2" d="M71.02,81.61c-2.21-.38-4.44-.65-6.67-.8-1.15-.08-2.42-.17-3.22-1-.67-.7-.82-1.81-.45-2.7s1.21-1.55,2.15-1.79c.69-.18,1.42-.16,2.13-.12,2.3.12,4.58.35,6.87.57,2.48.6,4.87,1.59,7.06,2.91.81.49,1.67,1.15,1.76,2.09.09,1.05-.88,1.94-1.91,2.15s-2.09-.07-3.11-.33c-1.53-.39-3.07-.71-4.62-.98Z"/>
  <path id="mouth" class="cls-8" d="M91.97,112.45c2.43,3.2,7.58,3.86,10.74,1.39"/>
  <rect id="scarf-5" data-name="scarf" class="cls-6" x="76.54" y="142.73" width="18.8" height="10.05"/>
</svg>