<?xml version="1.0" encoding="UTF-8"?>
<svg id="Layer_2" data-name="Layer 2" xmlns="http://www.w3.org/2000/svg" viewBox="0 0 163.94 191.93">
  <defs>
    <style>
      .cls-1, .cls-2, .cls-3 {
        fill: #ee6623;
      }

      .cls-4, .cls-5, .cls-6, .cls-7, .cls-2, .cls-8, .cls-9, .cls-3, .cls-10, .cls-11, .cls-12, .cls-13, .cls-14, .cls-15 {
        stroke-miterlimit: 10;
      }

      .cls-4, .cls-5, .cls-6, .cls-7, .cls-2, .cls-8, .cls-9, .cls-3, .cls-10, .cls-11, .cls-12, .cls-13, .cls-14, .cls-15, .cls-16 {
        stroke: #231f20;
      }

      .cls-4, .cls-6 {
        fill: #fdd0b2;
      }

      .cls-4, .cls-2, .cls-11, .cls-16 {
        stroke-width: 2px;
      }

      .cls-5 {
        fill: #282829;
      }

      .cls-17 {
        fill: #231f20;
      }

      .cls-7 {
        fill: #edd1c2;
      }

      .cls-7, .cls-3, .cls-13, .cls-14 {
        stroke-width: .75px;
      }

      .cls-8, .cls-18 {
        fill: #292627;
      }

      .cls-9 {
        fill: #e7e7ea;
      }

      .cls-9, .cls-10 {
        stroke-width: .5px;
      }

      .cls-10 {
        fill: #a82223;
      }

      .cls-11, .cls-16 {
        fill: none;
      }

      .cls-12 {
        fill: #383737;
      }

      .cls-13 {
        fill: #e2ce20;
      }

      .cls-14 {
        fill: #7e323f;
      }

      .cls-15 {
        fill: #3c3c3c;
      }

      .cls-16 {
        stroke-linecap: round;
        stroke-linejoin: round;
      }
    </style>
  </defs>
  <ellipse id="hair" class="cls-2" cx="17.56" cy="82.55" rx="10.05" ry="12.41"/>
  <ellipse id="hair-2" data-name="hair" class="cls-2" cx="143.65" cy="82.55" rx="10.05" ry="12.41"/>
  <path id="scarf" class="cls-14" d="M41.81,120.62h77.3c.28,0,.51.23.51.51v8.16c0,3.17-2.57,5.74-5.74,5.74H47.26c-3.01,0-5.45-2.44-5.45-5.45v-8.96h0Z"/>
  <rect id="scarf-2" data-name="scarf" class="cls-13" x="88.06" y="120.62" width="17.43" height="14.41"/>
  <rect id="scarf-3" data-name="scarf" class="cls-13" x="53.75" y="120.62" width="15.1" height="14.41"/>
  <g id="face">
    <ellipse class="cls-6" cx="24.02" cy="98" rx="5.09" ry="5.85"/>
    <ellipse class="cls-6" cx="138.41" cy="99.07" rx="5.09" ry="5.85"/>
    <path class="cls-4" d="M31.79,35.36h99.18c3.74,0,6.77,3.04,6.77,6.77v51.44c0,15.49-12.58,28.07-28.07,28.07h-56.17c-15.73,0-28.49-12.77-28.49-28.49v-51.02c0-3.74,3.04-6.77,6.77-6.77Z"/>
  </g>
  <g id="body">
    <rect class="cls-18" x="45.27" y="137.23" width="69.86" height="33.74"/>
    <path class="cls-15" d="M53.52,170.84c0,4.11.41,8.58-2.22,10-.93.5-2.01.74-2.81,1.43-1.3,1.11-1.45,3.21-.63,4.71s2.43,2.45,4.09,2.87,3.4.38,5.11.34c6.58-.16,13.16-.31,19.75-.47.13-5.7.29-13.16.29-18.88"/>
    <path class="cls-12" d="M81.97,171.28c0,5.87.05,12.72.21,18.48,7.55.93,14.01,1.01,21.7.86,2.48-.05,5.24-1.17,6.23-3.45.58-1.33.34-2.97-.59-4.08s-2.5-1.64-3.91-1.31c.01-2.92.04-7.17.05-10.09"/>
    <path class="cls-8" d="M103.44,144.25c.33,2.94.66,5.87.99,8.81.29,2.55.59,5.16,1.67,7.48s3.09,4.35,5.59,4.72c3.38.5,6.59-2.25,7.74-5.53s.69-6.9-.04-10.3c-1.09-5.05-2.35-9.64-4.53-14.31-23.14.27-46.24-.24-69.39.04-2.82,5.09-5.18,10.92-6.85,16.52-1.07,3.59-1.79,7.85.48,10.81,1.96,2.57,5.78,3.2,8.7,1.9s4.97-4.2,5.86-7.33.75-6.47.26-9.69"/>
    <path class="cls-8" d="M42.55,164.77c-.26.95.36,4.34.95,5.33.5.84,1.85.62,2.83.63,17.2.27,34.4.53,51.6.8,5.78.09,11.55.3,17.33.36,1.01.01,1.85-.8,1.87-1.82.04-2.08-.51-4.6-.52-6.31"/>
    <path class="cls-5" d="M52.68,180.53h24.41v10.9h-24.41c-2.94,0-5.33-2.39-5.33-5.33v-.23c0-2.94,2.39-5.33,5.33-5.33Z"/>
    <path class="cls-7" d="M114.82,164.14h-4.24c-2.44,0-3.97-1.9-4.79-4.26l-.72-3.36h14.89l-.21,1.43c-.17,1.17-.53,2.31-1.11,3.34-.93,1.65-1.97,2.85-3.82,2.85Z"/>
    <path class="cls-7" d="M46.71,164.73h-3.68c-1.75,0-3.07-1.21-4.08-2.67-.61-.88-.96-1.91-1.03-2.98l-.13-1.76,15.87-.12-.91,2.64c-.31.91-.75,1.78-1.37,2.51-1.21,1.42-2.89,2.36-4.66,2.36Z"/>
    <path class="cls-5" d="M87.3,180.53h23.12v10.9h-23.12c-2.94,0-5.33-2.39-5.33-5.33v-.23c0-2.94,2.39-5.33,5.33-5.33Z" transform="translate(192.39 371.96) rotate(-180)"/>
  </g>
  <rect id="scarf-4" data-name="scarf" class="cls-14" x="56.77" y="135.03" width="18.8" height="26.08"/>
  <rect class="cls-13" x="56.77" y="147.65" width="18.8" height="13.45"/>
  <path id="tie" class="cls-9" d="M78.46,140.86l-4.07-5.93h12.65s-4.07,5.93-4.07,5.93c-1.08,1.58-3.42,1.58-4.5,0Z"/>
  <path id="pocket" class="cls-10" d="M87.97,140.86h9.67c.43,0,.77.35.77.77v5.1c0,2.95-2.4,5.35-5.35,5.35h0c-3.24,0-5.87-2.63-5.87-5.87v-4.57c0-.43.35-.77.77-.77Z"/>
  <path id="hair-3" data-name="hair" class="cls-1" d="M127.78,72.66c7.72,3.96,19.58,7.28,27.28,3.28.08-.04.15-.08.23-.12,10.17-5.4,11.51-19.38,2.89-27.02-4.32-3.83-7.95-8.62-11.12-13.47-5.63-8.59-10.57-17.92-18.39-24.58C116.46.37,97.38-1.01,83.26,6.57,74.3,1.19,63.13-.4,53.03,2.27s-19.03,9.56-24.17,18.67c-4.7,8.34-6.41,18.45-12.86,25.52-5.19,5.7-13.23,9.16-14.02,17.9-.29,3.24.57,6.5,2.3,9.25,4.95,7.87,14.88,9.84,23.2,7.43,6.46-1.88,14.4-13.03,18.89-18.04,7.5-1.25,13.24-5.37,17.67-11.56.77,6.91,1.54,13.82,2.31,20.73,13.08-10.43,20.33-27.75,18.58-44.39-.76,7.67-1.53,15.35-2.29,23.02-.76,7.6-1.17,16.25,4.09,21.78,3.4,3.57,8.58,4.99,13.51,4.87s10.29.48,15-.99c9.42-2.93,18.39-5.91,27.79-8.89,1.84-.58,3.11-2.88,4.64-4.05s2.65-3.06,2.39-4.97c-3.92.17-7.89-1.28-10.79-3.93s-4.68-6.48-4.85-10.41"/>
  <path id="hair-4" data-name="hair" class="cls-11" d="M22.55,62.13c14.44,6.41,31.22,1.31,41.49-10.69.76,7.01,1.55,13.72,2.31,20.73,11.67-12.29,19.48-28.38,18.24-45.28,1.76,8.33.06,16.97-1.1,25.41-1.51,11.04.94,18.18,7.9,23.08,7.04,4.95,16.62,3.09,24.94.87,0-.02,0-.04,0-.06,6.28-1.73,12.56-2.52,18.84-4.44,3.51-1.08,7.08-2.18,10.16-4.18s5.66-5.08,6.21-8.71c-4.17.27-8.43-1.25-11.5-4.1s-4.89-6.98-4.94-11.16"/>
  <path id="hair-5" data-name="hair" class="cls-11" d="M43.97,64.71c-4.49,5.01-10.95,14.44-17.41,16.32-8.32,2.42-18.25.44-23.2-7.43-1.73-2.75-2.59-6.01-2.3-9.25.79-8.74,8.83-12.2,14.02-17.9,6.44-7.08,8.15-17.19,12.86-25.52,5.14-9.11,14.06-16,24.17-18.67s21.27-1.08,30.24,4.3c14.11-7.58,33.2-6.2,45.4,4.18,7.82,6.66,12.76,15.99,18.39,24.58,3.17,4.84,6.8,9.64,11.12,13.47,8.62,7.64,7.28,21.62-2.89,27.02-.08.04-.15.08-.23.12-7.7,3.99-17.38.67-25.1-3.28"/>
  <path id="eyes" class="cls-17" d="M60.01,89.99c0,3.94-3.2,7.14-7.14,7.14s-7.14-3.2-7.14-7.14,3.2-7.14,7.14-7.14,7.14,3.2,7.14,7.14ZM107.9,82.85c-3.94,0-7.14,3.2-7.14,7.14s3.2,7.14,7.14,7.14,7.14-3.2,7.14-7.14-3.2-7.14-7.14-7.14Z"/>
  <path id="mouth" class="cls-16" d="M72.99,109.97c3.96,3.15,9.57,4.08,14.34,2.38"/>
  <path id="pecas" class="cls-17" d="M43.95,99.07c0,.59-.48,1.07-1.07,1.07s-1.07-.48-1.07-1.07.48-1.07,1.07-1.07,1.07.48,1.07,1.07ZM49.02,106.7c-.59,0-1.07.48-1.07,1.07s.48,1.07,1.07,1.07,1.07-.48,1.07-1.07-.48-1.07-1.07-1.07ZM55.69,101.68c-.59,0-1.07.48-1.07,1.07s.48,1.07,1.07,1.07,1.07-.48,1.07-1.07-.48-1.07-1.07-1.07ZM102.55,102.76c-.59,0-1.07.48-1.07,1.07s.48,1.07,1.07,1.07,1.07-.48,1.07-1.07-.48-1.07-1.07-1.07ZM116.19,100.61c-.59,0-1.07.48-1.07,1.07s.48,1.07,1.07,1.07,1.07-.48,1.07-1.07-.48-1.07-1.07-1.07ZM111.43,106.7c-.59,0-1.07.48-1.07,1.07s.48,1.07,1.07,1.07,1.07-.48,1.07-1.07-.48-1.07-1.07-1.07Z"/>
  <path id="eyeborwn" class="cls-3" d="M48.52,69.53c1.47-.86,3.23-1.08,4.94-1.06,4.14.05,8.25,1.44,11.56,3.93.59.44,1.2,1,1.24,1.73.06,1.07-1.19,1.82-2.26,1.72s-1.99-.76-2.92-1.3c-3.91-2.22-8.95-2.33-12.95-.27-.48.25-.96.53-1.5.59-3.27.37.91-4.77,1.9-5.34Z"/>
</svg>