<?xml version="1.0" encoding="UTF-8"?>
<svg id="Layer_1" data-name="Layer 1" xmlns="http://www.w3.org/2000/svg" viewBox="0 0 141.45 201.47">
  <defs>
    <style>
      .cls-1 {
        stroke: #b3b3b3;
        stroke-width: .75px;
      }

      .cls-1, .cls-2 {
        fill: none;
        stroke-linecap: round;
        stroke-linejoin: round;
      }

      .cls-2, .cls-3 {
        stroke: #000;
        stroke-width: 2px;
      }

      .cls-4 {
        fill: #b3b3b3;
      }

      .cls-3 {
        fill: #dad8d7;
        stroke-miterlimit: 10;
      }
    </style>
  </defs>
  <g>
    <path d="M30.05,193.86c-.9,0-1.74-.4-2.3-1.1-.57-.7-.79-1.6-.6-2.48l16.52-79.4c.29-1.37,1.51-2.37,2.91-2.37h47.1c1.4,0,2.59.96,2.9,2.32l17.71,79.4c.2.88-.02,1.8-.58,2.5-.57.71-1.41,1.11-2.32,1.11H30.05Z"/>
    <path d="M93.67,109.52c.93,0,1.72.63,1.92,1.54l17.71,79.4c.13.59,0,1.19-.39,1.66s-.94.74-1.54.74H30.05c-.6,0-1.15-.26-1.53-.73-.38-.46-.52-1.06-.4-1.64l16.52-79.4c.19-.91,1-1.57,1.93-1.57h47.1M93.67,107.52h-47.1c-1.88,0-3.5,1.32-3.89,3.16l-16.52,79.4c-.51,2.47,1.37,4.78,3.89,4.78h81.33c2.54,0,4.43-2.35,3.87-4.83l-17.71-79.4c-.4-1.82-2.02-3.11-3.87-3.11h0Z"/>
  </g>
  <ellipse class="cls-3" cx="134.79" cy="93.89" rx="8.56" ry="5.3" transform="translate(5 194.58) rotate(-72.67)"/>
  <ellipse class="cls-3" cx="6.59" cy="94.33" rx="5.3" ry="8.56" transform="translate(-24.91 5.17) rotate(-15.46)"/>
  <path class="cls-3" d="M134.78,76.84c.06-13.28-.98-26.76-5.48-39.26s-12.76-24.03-24.44-30.35C92.61.6,78.02,1.95,64.13,1.07s-28.08,6.72-37.34,17.57-14.46,24.6-17.84,38.46c-2.66,10.88-4.29,22.35-1.68,33.24s10.23,21.13,21,24.22c24.94,7.16,51.13,8.45,76.66,3.83,6.99-1.26,14.18-3.13,19.53-7.8,4.66-4.07,7.46-9.93,8.9-15.95,1.44-6.02,1.4-11.6,1.43-17.79Z"/>
  <path d="M30.69,89.53c2.77,2.58,7.43,3.22,10.88,1.48,2.91-1.47,4.85-4.67,4.17-7.67-.97-4.25-8.36-8.44-12.95-6.99-5.75,1.82-5.78,9.74-2.09,13.18Z"/>
  <path d="M110.14,89.53c-2.7,2.58-7.26,3.22-10.63,1.48-2.85-1.47-4.74-4.67-4.07-7.67.95-4.25,8.17-8.44,12.66-6.99,5.62,1.82,5.64,9.74,2.05,13.18Z"/>
  <path class="cls-4" d="M62.62,89.91c2.84,2.12,4.75,5.34,5.23,8.85-2.85-2.11-4.74-5.34-5.23-8.85h0Z"/>
  <path class="cls-4" d="M79.66,90.01c-.2,3.36-1.84,6.55-4.47,8.65.19-3.37,1.85-6.54,4.47-8.65h0Z"/>
  <path class="cls-1" d="M29.67,94.72c1.66,2.1,4.38,3.31,7.05,3.15s5.22-1.7,6.61-3.98"/>
  <path class="cls-1" d="M96.85,93.29c2.21,2.04,5.16,3.26,8.16,3.39s6.04-.83,8.42-2.67"/>
  <path class="cls-2" d="M62.77,112.44l7.58-4.92c2.63,1.53,5.27,3.07,7.9,4.6"/>
  <g>
    <rect x="37.5" y="181.44" width="31.86" height="19.04" rx="7.53" ry="7.53"/>
    <path d="M61.84,182.44c3.6,0,6.53,2.93,6.53,6.53v3.98c0,3.6-2.93,6.53-6.53,6.53h-16.8c-3.6,0-6.53-2.93-6.53-6.53v-3.98c0-3.6,2.93-6.53,6.53-6.53h16.8M61.84,180.44h-16.8c-4.71,0-8.53,3.82-8.53,8.53v3.98c0,4.71,3.82,8.53,8.53,8.53h16.8c4.71,0,8.53-3.82,8.53-8.53v-3.98c0-4.71-3.82-8.53-8.53-8.53h0Z"/>
  </g>
  <g>
    <rect x="74.28" y="181.44" width="31.86" height="19.04" rx="7.53" ry="7.53"/>
    <path d="M98.61,182.44c3.6,0,6.53,2.93,6.53,6.53v3.98c0,3.6-2.93,6.53-6.53,6.53h-16.8c-3.6,0-6.53-2.93-6.53-6.53v-3.98c0-3.6,2.93-6.53,6.53-6.53h16.8M98.61,180.44h-16.8c-4.71,0-8.53,3.82-8.53,8.53v3.98c0,4.71,3.82,8.53,8.53,8.53h16.8c4.71,0,8.53-3.82,8.53-8.53v-3.98c0-4.71-3.82-8.53-8.53-8.53h0Z"/>
  </g>
  <ellipse class="cls-3" cx="109.46" cy="163.04" rx="6.62" ry="9.73" transform="translate(-39.5 35.08) rotate(-15.46)"/>
  <path d="M117.98,163.77h-15.21c-6.45-.06-9.04-2.66-10.64-7.75l-6.71-21.31c-1.6-5.1,1.23-10.53,6.33-12.13l6.17-1.94c5.1-1.6,9.62-1.68,11.22,3.42l7.62,24.22c1.33,6.73,6.32,13.9,1.22,15.5Z"/>
  <ellipse class="cls-3" cx="12.39" cy="144.96" rx="9.73" ry="6.62" transform="translate(-62.45 20.19) rotate(-26.07)"/>
  <path d="M43.58,138.39l-21.87,17.73c-2.2,1.78-5.48,1.06-6.73-1.48l-7.27-14.83c-1.45-2.97-.23-6.57,2.76-7.99,10.31-4.92,20.79-8.89,31.53-13.11-1.17,6.59-1.07,13.54,1.59,19.68Z"/>
</svg>